<svg width="204" height="56" viewBox="0 0 204 56" fill="none" xmlns="http://www.w3.org/2000/svg">
<path d="M38.0535 0.695149C39.9319 1.36802 40.8712 2.26519 40.8712 3.38665C40.8712 3.75113 40.7029 4.43802 40.3665 5.44733L32.292 28.7877C32.2359 28.984 32.1378 29.2223 31.9976 29.5026C31.8574 29.783 31.4789 30.1615 30.8621 30.6381C30.2734 31.0867 29.5584 31.311 28.7173 31.311C27.9043 31.311 27.1894 31.0867 26.5726 30.6381C25.9838 30.1615 25.5913 29.6989 25.395 29.2503L20.4746 14.7414C17.3626 23.9374 15.7785 28.6195 15.7224 28.7877C15.6664 28.9559 15.5402 29.1942 15.3439 29.5026C15.1477 29.811 14.9234 30.0914 14.6711 30.3437C14.0262 30.9886 13.2552 31.311 12.358 31.311C11.4609 31.311 10.7179 31.1007 10.1291 30.6802C9.56842 30.2596 9.18992 29.8391 8.99367 29.4185L8.69929 28.7877L0.582719 5.44733C0.274318 4.52213 0.120117 3.83524 0.120117 3.38665C0.120117 2.26519 1.05934 1.38204 2.93779 0.737204C3.75084 0.456839 4.47979 0.316657 5.12463 0.316657C5.79751 0.316657 6.30216 0.540948 6.6386 0.989531C7.00308 1.43812 7.3255 2.12501 7.60586 3.05021L12.2319 17.0965L16.8159 3.26049C17.2084 2.08296 17.9233 1.2699 18.9606 0.821315C19.4092 0.625058 19.984 0.52693 20.6849 0.52693C21.4138 0.52693 22.0867 0.765241 22.7035 1.24186C23.3203 1.69044 23.7128 2.13903 23.881 2.58761L28.7173 17.1806L33.3434 3.05021C33.5677 2.40537 33.7499 1.92876 33.8901 1.62035C34.0303 1.31195 34.2826 1.01757 34.6471 0.737204C35.0396 0.428803 35.5162 0.274602 36.0769 0.274602C36.6377 0.274602 37.2965 0.414785 38.0535 0.695149Z" fill="white"/>
<path d="M61.085 0.148438C65.2344 0.148438 68.8371 1.64839 71.8931 4.64829C74.9491 7.6482 76.4771 11.3771 76.4771 15.8349C76.4771 20.2646 75.0192 24.0495 72.1034 27.1896C69.1876 30.3017 65.5989 31.8577 61.3374 31.8577C57.0758 31.8577 53.4451 30.3157 50.4452 27.2317C47.4733 24.1477 45.9874 20.4749 45.9874 16.2133C45.9874 13.8863 46.4079 11.7135 47.249 9.69486C48.0901 7.6482 49.2116 5.93797 50.6134 4.56419C52.0152 3.1904 53.6273 2.11099 55.4497 1.32597C57.2721 0.540948 59.1505 0.148438 61.085 0.148438ZM53.4311 16.0031C53.4311 18.4983 54.2301 20.531 55.8282 22.101C57.4543 23.643 59.2627 24.414 61.2533 24.414C63.2438 24.414 65.0382 23.657 66.6363 22.1431C68.2343 20.6291 69.0334 18.5965 69.0334 16.0451C69.0334 13.4938 68.2203 11.4471 66.5942 9.90514C64.9961 8.36313 63.2018 7.59213 61.2112 7.59213C59.2206 7.59213 57.4263 8.37715 55.8282 9.94719C54.2301 11.4892 53.4311 13.5078 53.4311 16.0031Z" fill="white"/>
<path d="M102.552 1.83063C102.832 1.32597 103.239 0.989533 103.772 0.821315C104.304 0.653094 104.963 0.568984 105.748 0.568984C106.561 0.568984 107.206 0.639075 107.683 0.779258C108.187 0.91944 108.552 1.08766 108.776 1.28392C109.028 1.48017 109.211 1.77456 109.323 2.16707C109.491 2.61565 109.575 3.33058 109.575 4.31186V27.6522C109.575 28.3251 109.547 28.8158 109.491 29.1242C109.463 29.4326 109.337 29.797 109.113 30.2176C108.72 30.9746 107.627 31.3531 105.832 31.3531C104.739 31.3531 103.982 31.2689 103.561 31.1007C103.141 30.9325 102.79 30.6662 102.51 30.3017C96.2017 21.8907 92.0523 16.3956 90.0617 13.8162V27.6522C90.0617 28.3251 90.0337 28.8158 89.9776 29.1242C89.9496 29.4326 89.8234 29.797 89.5991 30.2176C89.2066 30.9746 88.1132 31.3531 86.3189 31.3531C84.5806 31.3531 83.5152 30.9746 83.1227 30.2176C82.8984 29.797 82.7582 29.4185 82.7022 29.0821C82.6741 28.7457 82.6601 28.255 82.6601 27.6102V4.14364C82.6601 3.07825 82.7863 2.30725 83.0386 1.83063C83.319 1.32597 83.7255 0.989533 84.2582 0.821315C84.7909 0.653094 85.4778 0.568984 86.3189 0.568984C87.16 0.568984 87.8188 0.653094 88.2954 0.821315C88.8001 0.961497 89.1505 1.12972 89.3468 1.32597C89.4589 1.41008 89.7814 1.77455 90.3141 2.41939C96.2298 10.4659 100.183 15.7788 102.174 18.3581V4.14364C102.174 3.07825 102.3 2.30725 102.552 1.83063Z" fill="white"/>
<path d="M120.104 0.484876L127.884 0.52693C131.949 0.52693 135.524 1.99885 138.608 4.94268C141.692 7.85847 143.234 11.4612 143.234 15.7507C143.234 20.0123 141.72 23.6711 138.692 26.727C135.692 29.783 132.047 31.311 127.758 31.311H120.062C118.352 31.311 117.286 30.9605 116.866 30.2596C116.529 29.6709 116.361 28.7737 116.361 27.5681V4.18569C116.361 3.51282 116.375 3.02218 116.403 2.71378C116.459 2.40538 116.599 2.0409 116.824 1.62035C117.216 0.863369 118.31 0.484876 120.104 0.484876ZM127.884 23.8673C129.903 23.8673 131.725 23.1243 133.351 21.6384C134.977 20.1244 135.79 18.232 135.79 15.961C135.79 13.6901 134.991 11.7976 133.393 10.2836C131.823 8.74162 129.973 7.97062 127.842 7.97062H123.805V23.8673H127.884Z" fill="white"/>
<path d="M156.849 23.9094H169.801C170.446 23.9094 170.923 23.9374 171.231 23.9935C171.568 24.0215 171.946 24.1477 172.367 24.372C173.124 24.7645 173.502 25.8579 173.502 27.6522C173.502 29.6148 172.984 30.7643 171.946 31.1007C171.47 31.2689 170.741 31.3531 169.759 31.3531H153.106C151.143 31.3531 149.994 30.8204 149.657 29.755C149.489 29.3064 149.405 28.5915 149.405 27.6102V4.22775C149.405 2.79789 149.671 1.83063 150.204 1.32597C150.737 0.793277 151.746 0.52693 153.232 0.52693H169.801C170.446 0.52693 170.923 0.554967 171.231 0.611041C171.568 0.639077 171.946 0.76524 172.367 0.989531C173.124 1.38204 173.502 2.47547 173.502 4.2698C173.502 6.23236 172.984 7.38185 171.946 7.71829C171.47 7.88651 170.741 7.97062 169.759 7.97062H156.849V12.2182H165.175C165.82 12.2182 166.297 12.2462 166.605 12.3023C166.942 12.3303 167.32 12.4565 167.741 12.6807C168.498 13.0733 168.876 14.1667 168.876 15.961C168.876 17.9236 168.344 19.0731 167.278 19.4095C166.802 19.5777 166.073 19.6618 165.091 19.6618H156.849V23.9094Z" fill="white"/>
<path d="M203.249 26.1383C203.669 27.1476 203.88 27.8765 203.88 28.3251C203.88 29.3905 203.01 30.2877 201.272 31.0166C200.375 31.4091 199.646 31.6054 199.085 31.6054C198.553 31.6054 198.104 31.4792 197.74 31.2269C197.403 30.9465 197.151 30.6662 196.983 30.3858C196.702 29.8531 195.609 27.3158 193.702 22.7739L192.399 22.858H187.1V27.6102C187.1 28.255 187.072 28.7457 187.016 29.0821C186.988 29.3905 186.861 29.755 186.637 30.1755C186.245 30.9325 185.151 31.311 183.357 31.311C181.394 31.311 180.245 30.7923 179.908 29.755C179.74 29.2784 179.656 28.5494 179.656 27.5681V4.22775C179.656 3.58291 179.67 3.10629 179.698 2.79789C179.754 2.46145 179.894 2.08296 180.119 1.66241C180.511 0.905423 181.605 0.52693 183.399 0.52693H192.483C194.95 0.52693 197.347 1.4241 199.674 3.21843C200.796 4.08757 201.721 5.2651 202.45 6.75103C203.179 8.23697 203.543 9.89112 203.543 11.7135C203.543 14.8816 202.492 17.489 200.389 19.5357C201.006 21.0216 201.959 23.2225 203.249 26.1383ZM187.1 15.4143H192.483C193.296 15.4143 194.109 15.1059 194.922 14.4891C195.735 13.8723 196.142 12.9471 196.142 11.7135C196.142 10.4799 195.735 9.55468 194.922 8.93788C194.109 8.29304 193.268 7.97062 192.399 7.97062H187.1V15.4143Z" fill="white"/>
<path d="M60.6119 31.9244C69.4068 31.9244 76.5364 24.7948 76.5364 16C76.5364 7.20517 69.4068 0.0755615 60.6119 0.0755615C51.8171 0.0755615 44.6875 7.20517 44.6875 16C44.6875 24.7948 51.8171 31.9244 60.6119 31.9244Z" fill="#97F8FF"/>
<path d="M62.466 0.186401L61.8085 2.23468C61.6494 2.73039 61.2508 3.11227 60.7487 3.24993L59.0995 3.70209C58.9668 3.73848 58.8297 3.75696 58.692 3.75696H56.2242C55.9668 3.75696 55.7491 3.94755 55.7151 4.20272L55.432 6.32539L53.8558 6.40794C53.5907 6.42181 53.3799 6.6353 53.3693 6.90048L53.3148 8.27041C53.3025 8.57889 53.5631 8.82845 53.8707 8.80282L54.9208 8.7153C55.1908 8.69279 55.4374 8.55295 55.5953 8.33281L56.5665 6.97823L58.6437 6.90402C59.0879 6.88816 59.4018 7.33517 59.2405 7.74945C58.8786 8.67898 58.8781 8.7586 58.8781 8.84033C58.8781 9.1243 59.1079 9.35402 59.3918 9.35402C59.6456 9.35402 59.8568 9.1694 59.8979 8.92761C59.933 8.80923 60.0899 8.39881 60.2953 7.87778C60.3811 7.66019 60.6766 7.62815 60.8055 7.82335L60.9383 8.02433C61.1838 8.39601 61.641 8.56707 62.0702 8.44795L62.9874 8.19341C63.2431 8.12249 63.4496 7.93376 63.5431 7.6855L63.719 7.21872C63.8433 6.88909 64.1277 6.64612 64.4727 6.5749L65.0655 6.45254C65.4689 6.36931 65.8966 6.61322 65.9669 7.0191C66.0386 7.43376 65.7472 7.81047 65.3425 7.85688L63.913 7.89526C63.6224 7.90309 63.3888 8.1373 63.3819 8.42804L63.3787 8.56489C63.3761 8.67481 63.4367 8.77651 63.5347 8.82646L64.3566 9.24585C64.6695 9.40547 64.7715 9.80333 64.574 10.0938C64.4653 10.2536 64.2847 10.3492 64.0914 10.3492H59.7562C59.6427 10.3492 59.5302 10.3279 59.4247 10.2863L55.7868 8.85321C55.5176 8.74715 55.2115 8.80457 54.999 9.00095L51.5537 12.1852C51.2791 12.4391 51.164 12.8221 51.2534 13.1853L51.9539 16.031C52.062 16.4702 52.4447 16.787 52.8964 16.8113L56.7778 17.02C57.5415 17.0611 58.1595 17.656 58.2297 18.4175L58.5241 21.614C58.5461 21.8531 58.6092 22.0837 58.713 22.3003C59.04 22.9827 59.8026 24.5336 60.2265 25.0698C60.7723 25.76 62.117 25.7874 62.5702 25.3747L65.7261 22.7923C65.9899 22.5522 66.1621 22.2281 66.2136 21.8751L66.5834 19.3389L69.0894 16.5771C69.3335 16.308 69.2239 15.8954 68.9133 15.7621L68.8683 15.7922C68.6782 15.9196 68.459 15.9969 68.2322 16.017C68.1921 16.0204 68.152 16.0225 68.1119 16.0225C67.6473 16.0225 67.2164 15.7867 66.9661 15.3884L65.0528 12.3504C64.9019 12.1101 64.9741 11.793 65.2139 11.6415C65.4557 11.4916 65.7712 11.5633 65.9227 11.8026L67.836 14.8411C67.9017 14.9465 68.0181 15.0036 68.1425 14.9936C68.1972 14.9886 68.2508 14.9696 68.297 14.939L70.8832 13.5217C71.1527 13.3739 71.2241 13.019 71.0326 12.7786C70.9261 12.6449 70.7583 12.5755 70.5885 12.595L70.0453 12.6575C69.8993 12.6743 69.7532 12.6278 69.6437 12.5299L68.0171 11.0748C67.8059 10.8857 67.7879 10.5611 67.977 10.3494C68.1656 10.1377 68.4901 10.1202 68.7023 10.3093L70.1571 11.6106L71.041 11.5087C71.2242 11.4862 71.4057 11.5664 71.5146 11.7159L71.6847 11.9487L72.5462 11.8453C72.9649 11.7951 73.3717 12.0058 73.5723 12.3767L75.3121 15.5935C75.4383 15.8269 75.6499 16.0024 75.9027 16.0832L76.5285 16.303C76.5304 16.2019 76.5361 16.1016 76.5361 16C76.5361 7.83274 70.3866 1.10554 62.466 0.186401ZM69.1182 8.97681C69.0305 9.03653 68.9301 9.06508 68.8313 9.06508C68.6662 9.06508 68.5042 8.98583 68.4054 8.83884L67.3353 7.25511C67.1763 7.02035 67.238 6.7008 67.4733 6.54224C67.7075 6.38269 68.0281 6.44545 68.1861 6.68021L69.2562 8.26394C69.4152 8.4987 69.3535 8.81825 69.1182 8.97681Z" fill="url(#paint0_linear)"/>
<path d="M65.8345 26.7018C57.0396 26.7018 49.91 19.5722 49.91 10.7774C49.91 7.71817 50.7744 4.8616 52.2698 2.4353C47.721 5.23881 44.6875 10.2643 44.6875 15.9999C44.6875 24.7948 51.8171 31.9244 60.6119 31.9244C66.3475 31.9244 71.3731 28.8909 74.1766 24.342C71.7503 25.8374 68.8938 26.7018 65.8345 26.7018Z" fill="#39CCD7"/>
<path d="M67.5465 24.4116C67.4301 24.4116 67.3127 24.372 67.2164 24.2912C66.9992 24.1087 66.9711 23.7846 67.1537 23.5674L68.5021 21.9621C68.6842 21.7454 69.0088 21.7168 69.226 21.8994C69.4432 22.082 69.4714 22.4061 69.2887 22.6233L67.9403 24.2285C67.8389 24.3494 67.693 24.4116 67.5465 24.4116Z" fill="#77F1A5"/>
<path d="M56.2309 0.690824L55.7739 2.05261C55.6836 2.32152 55.8286 2.61295 56.0975 2.70327C56.1517 2.72131 56.2069 2.72984 56.261 2.72984C56.4758 2.72984 56.6759 2.59442 56.7482 2.37968L57.4135 0.397217C57.013 0.478767 56.6198 0.579726 56.2309 0.690824Z" fill="#77F1A5"/>
<path d="M47.3547 24.8213L47.7992 20.7833C47.8347 20.4664 47.721 20.1509 47.4914 19.9296L44.75 17.366C44.9831 20.1081 45.9086 22.6523 47.3547 24.8213Z" fill="#00B881"/>
<path d="M60.612 0.0755615C60.0359 0.0755615 59.4675 0.107846 58.9072 0.1675L58.8537 1.37284C58.7193 1.77668 58.937 2.21311 59.3408 2.34753C59.4216 2.37459 59.5039 2.38715 59.5846 2.38715C59.9071 2.38715 60.2081 2.183 60.3155 1.8604L60.9079 0.0830261C60.8091 0.0812222 60.7113 0.0755615 60.612 0.0755615Z" fill="#77F1A5"/>
<path d="M75.368 1.24357C74.2502 0.125838 72.0093 -0.708003 67.6045 1.26308C68.9501 1.90192 70.1942 2.72016 71.3056 3.68735C71.6785 3.61015 71.9788 3.58125 72.2144 3.58125C72.4125 3.58125 72.5646 3.60152 72.6746 3.6296C72.7854 3.65767 72.854 3.69355 72.886 3.72553C72.9873 3.82766 73.1317 4.30509 72.9242 5.30578C72.7636 6.08111 72.3915 7.1716 71.6247 8.64499C69.957 11.8485 67.1178 15.5325 63.6312 19.0191C60.1446 22.5058 56.4598 25.345 53.2571 27.0127C51.7836 27.7795 50.6932 28.1516 49.9179 28.3122C48.9171 28.5197 48.4397 28.3754 48.3375 28.274C48.2361 28.1718 48.0918 27.6944 48.2993 26.6937C47.3321 25.5822 46.5139 24.3381 45.875 22.9925C43.9039 27.3973 44.7378 29.6374 45.8555 30.756C46.485 31.3847 47.4693 31.9244 48.995 31.9244C50.1799 31.9244 51.6923 31.5984 53.6181 30.7365C54.0198 30.5571 54.4395 30.3543 54.8779 30.1258C58.3902 28.2974 62.38 25.2343 66.1131 21.5012C69.8462 17.7681 72.9093 13.7784 74.7376 10.266C74.9654 9.82764 75.169 9.40873 75.3484 9.00703C76.2103 7.08117 76.5364 5.56793 76.5364 4.38234C76.5364 2.85741 75.9975 1.87302 75.368 1.24357Z" fill="url(#paint1_linear)"/>
<path d="M51.2841 18.0226L72.0653 12.9686L65.2175 27.9686L51.2841 18.0226Z" fill="#FF5F91"/>
<path opacity="0.25" d="M72.0659 12.9696L65.2173 27.968L51.2829 18.0215L52.4675 17.7349L64.9177 26.6201L71.0369 13.2191L72.0659 12.9696Z" fill="#BAC2D3"/>
<path d="M72.0655 12.9684L55.3977 20.9586L55.609 29.5479L59.096 23.5985L72.0655 12.9684Z" fill="#C1CDD3"/>
<path d="M72.0655 12.9684L55.3977 20.9586L55.609 29.5479L59.096 23.5985L72.0655 12.9684Z" fill="#E12424"/>
<path d="M55.6085 29.5479L61.95 25.6361L59.0955 23.5986L55.6085 29.5479Z" fill="#B9315B"/>
<path opacity="0.25" d="M61.949 25.6359L55.6088 29.5489L56.5654 27.9165L61.165 25.0774L61.949 25.6359Z" fill="#C1CDD3"/>
<path d="M57.4094 42.3564H55.5694V49.9244H54.1134V42.3564H52.9774V41.1564H54.1134V40.5324C54.1134 39.5511 54.364 38.8364 54.8654 38.3884C55.3774 37.9298 56.1934 37.7004 57.3134 37.7004V38.9164C56.6734 38.9164 56.22 39.0444 55.9534 39.3004C55.6974 39.5458 55.5694 39.9564 55.5694 40.5324V41.1564H57.4094V42.3564ZM62.931 50.0684C62.1097 50.0684 61.363 49.8818 60.691 49.5084C60.0297 49.1351 59.507 48.6071 59.123 47.9244C58.7497 47.2311 58.563 46.4311 58.563 45.5244C58.563 44.6284 58.755 43.8391 59.139 43.1564C59.5337 42.4631 60.067 41.9351 60.739 41.5724C61.411 41.1991 62.163 41.0124 62.995 41.0124C63.827 41.0124 64.579 41.1991 65.251 41.5724C65.923 41.9351 66.451 42.4578 66.835 43.1404C67.2297 43.8231 67.427 44.6178 67.427 45.5244C67.427 46.4311 67.2243 47.2311 66.819 47.9244C66.4243 48.6071 65.8857 49.1351 65.203 49.5084C64.5203 49.8818 63.763 50.0684 62.931 50.0684ZM62.931 48.7884C63.4537 48.7884 63.9443 48.6658 64.403 48.4204C64.8617 48.1751 65.2297 47.8071 65.507 47.3164C65.795 46.8258 65.939 46.2284 65.939 45.5244C65.939 44.8204 65.8003 44.2231 65.523 43.7324C65.2457 43.2418 64.883 42.8791 64.435 42.6444C63.987 42.3991 63.5017 42.2764 62.979 42.2764C62.4457 42.2764 61.955 42.3991 61.507 42.6444C61.0697 42.8791 60.7177 43.2418 60.451 43.7324C60.1843 44.2231 60.051 44.8204 60.051 45.5244C60.051 46.2391 60.179 46.8418 60.435 47.3324C60.7017 47.8231 61.0537 48.1911 61.491 48.4364C61.9283 48.6711 62.4083 48.7884 62.931 48.7884ZM70.7974 42.5804C71.0534 42.0791 71.416 41.6898 71.8854 41.4124C72.3654 41.1351 72.9467 40.9964 73.6294 40.9964V42.5004H73.2454C71.6134 42.5004 70.7974 43.3858 70.7974 45.1564V49.9244H69.3414V41.1564H70.7974V42.5804ZM81.3518 42.3564V47.5244C81.3518 47.9511 81.4424 48.2551 81.6238 48.4364C81.8051 48.6071 82.1198 48.6924 82.5677 48.6924H83.6398V49.9244H82.3278C81.5171 49.9244 80.9091 49.7378 80.5038 49.3644C80.0984 48.9911 79.8958 48.3778 79.8958 47.5244V42.3564H78.7598V41.1564H79.8958V38.9484H81.3518V41.1564H83.6398V42.3564H81.3518ZM86.8599 42.5804C87.1159 42.0791 87.4785 41.6898 87.9479 41.4124C88.4279 41.1351 89.0092 40.9964 89.6919 40.9964V42.5004H89.3079C87.6759 42.5004 86.8599 43.3858 86.8599 45.1564V49.9244H85.4039V41.1564H86.8599V42.5804ZM90.8286 45.5084C90.8286 44.6124 91.01 43.8284 91.3726 43.1564C91.7353 42.4738 92.2313 41.9458 92.8606 41.5724C93.5006 41.1991 94.21 41.0124 94.9886 41.0124C95.7566 41.0124 96.4233 41.1778 96.9886 41.5084C97.554 41.8391 97.9753 42.2551 98.2526 42.7564V41.1564H99.7246V49.9244H98.2526V48.2924C97.9646 48.8044 97.5326 49.2311 96.9566 49.5724C96.3913 49.9031 95.73 50.0684 94.9726 50.0684C94.194 50.0684 93.49 49.8764 92.8606 49.4924C92.2313 49.1084 91.7353 48.5698 91.3726 47.8764C91.01 47.1831 90.8286 46.3938 90.8286 45.5084ZM98.2526 45.5244C98.2526 44.8631 98.1193 44.2871 97.8526 43.7964C97.586 43.3058 97.2233 42.9324 96.7646 42.6764C96.3166 42.4098 95.8206 42.2764 95.2766 42.2764C94.7326 42.2764 94.2366 42.4044 93.7886 42.6604C93.3406 42.9164 92.9833 43.2898 92.7166 43.7804C92.45 44.2711 92.3166 44.8471 92.3166 45.5084C92.3166 46.1804 92.45 46.7671 92.7166 47.2684C92.9833 47.7591 93.3406 48.1378 93.7886 48.4044C94.2366 48.6604 94.7326 48.7884 95.2766 48.7884C95.8206 48.7884 96.3166 48.6604 96.7646 48.4044C97.2233 48.1378 97.586 47.7591 97.8526 47.2684C98.1193 46.7671 98.2526 46.1858 98.2526 45.5244ZM105.449 48.5804L108.169 41.1564H109.721L106.281 49.9244H104.585L101.145 41.1564H102.713L105.449 48.5804ZM119.154 45.2044C119.154 45.4818 119.138 45.7751 119.106 46.0844H112.098C112.151 46.9484 112.445 47.6258 112.978 48.1164C113.522 48.5964 114.178 48.8364 114.946 48.8364C115.575 48.8364 116.098 48.6924 116.514 48.4044C116.941 48.1058 117.239 47.7111 117.41 47.2204H118.978C118.743 48.0631 118.274 48.7511 117.57 49.2844C116.866 49.8071 115.991 50.0684 114.946 50.0684C114.114 50.0684 113.367 49.8818 112.706 49.5084C112.055 49.1351 111.543 48.6071 111.17 47.9244C110.797 47.2311 110.61 46.4311 110.61 45.5244C110.61 44.6178 110.791 43.8231 111.154 43.1404C111.517 42.4578 112.023 41.9351 112.674 41.5724C113.335 41.1991 114.093 41.0124 114.946 41.0124C115.778 41.0124 116.514 41.1938 117.154 41.5564C117.794 41.9191 118.285 42.4204 118.626 43.0604C118.978 43.6898 119.154 44.4044 119.154 45.2044ZM117.65 44.9004C117.65 44.3458 117.527 43.8711 117.282 43.4764C117.037 43.0711 116.701 42.7671 116.274 42.5644C115.858 42.3511 115.394 42.2444 114.882 42.2444C114.146 42.2444 113.517 42.4791 112.994 42.9484C112.482 43.4178 112.189 44.0684 112.114 44.9004H117.65ZM122.532 38.0844V49.9244H121.076V38.0844H122.532ZM133.013 45.2044C133.013 45.4818 132.997 45.7751 132.965 46.0844H125.957C126.011 46.9484 126.304 47.6258 126.837 48.1164C127.381 48.5964 128.037 48.8364 128.805 48.8364C129.435 48.8364 129.957 48.6924 130.373 48.4044C130.8 48.1058 131.099 47.7111 131.269 47.2204H132.837C132.603 48.0631 132.133 48.7511 131.429 49.2844C130.725 49.8071 129.851 50.0684 128.805 50.0684C127.973 50.0684 127.227 49.8818 126.565 49.5084C125.915 49.1351 125.403 48.6071 125.029 47.9244C124.656 47.2311 124.469 46.4311 124.469 45.5244C124.469 44.6178 124.651 43.8231 125.013 43.1404C125.376 42.4578 125.883 41.9351 126.533 41.5724C127.195 41.1991 127.952 41.0124 128.805 41.0124C129.637 41.0124 130.373 41.1938 131.013 41.5564C131.653 41.9191 132.144 42.4204 132.485 43.0604C132.837 43.6898 133.013 44.4044 133.013 45.2044ZM131.509 44.9004C131.509 44.3458 131.387 43.8711 131.141 43.4764C130.896 43.0711 130.56 42.7671 130.133 42.5644C129.717 42.3511 129.253 42.2444 128.741 42.2444C128.005 42.2444 127.376 42.4791 126.853 42.9484C126.341 43.4178 126.048 44.0684 125.973 44.9004H131.509ZM136.391 42.5804C136.647 42.0791 137.01 41.6898 137.479 41.4124C137.959 41.1351 138.54 40.9964 139.223 40.9964V42.5004H138.839C137.207 42.5004 136.391 43.3858 136.391 45.1564V49.9244H134.935V41.1564H136.391V42.5804ZM144.008 50.0684C143.336 50.0684 142.733 49.9564 142.2 49.7324C141.667 49.4978 141.245 49.1778 140.936 48.7724C140.627 48.3564 140.456 47.8818 140.424 47.3484H141.928C141.971 47.7858 142.173 48.1431 142.536 48.4204C142.909 48.6978 143.395 48.8364 143.992 48.8364C144.547 48.8364 144.984 48.7138 145.304 48.4684C145.624 48.2231 145.784 47.9138 145.784 47.5404C145.784 47.1564 145.613 46.8738 145.272 46.6924C144.931 46.5004 144.403 46.3138 143.688 46.1324C143.037 45.9618 142.504 45.7911 142.088 45.6204C141.683 45.4391 141.331 45.1778 141.032 44.8364C140.744 44.4844 140.6 44.0258 140.6 43.4604C140.6 43.0124 140.733 42.6018 141 42.2284C141.267 41.8551 141.645 41.5618 142.136 41.3484C142.627 41.1244 143.187 41.0124 143.816 41.0124C144.787 41.0124 145.571 41.2578 146.168 41.7484C146.765 42.2391 147.085 42.9111 147.128 43.7644H145.672C145.64 43.3058 145.453 42.9378 145.112 42.6604C144.781 42.3831 144.333 42.2444 143.768 42.2444C143.245 42.2444 142.829 42.3564 142.52 42.5804C142.211 42.8044 142.056 43.0978 142.056 43.4604C142.056 43.7484 142.147 43.9884 142.328 44.1804C142.52 44.3618 142.755 44.5111 143.032 44.6284C143.32 44.7351 143.715 44.8578 144.216 44.9964C144.845 45.1671 145.357 45.3378 145.752 45.5084C146.147 45.6684 146.483 45.9138 146.76 46.2444C147.048 46.5751 147.197 47.0071 147.208 47.5404C147.208 48.0204 147.075 48.4524 146.808 48.8364C146.541 49.2204 146.163 49.5244 145.672 49.7484C145.192 49.9618 144.637 50.0684 144.008 50.0684ZM149.727 50.0204C149.45 50.0204 149.215 49.9244 149.023 49.7324C148.831 49.5404 148.735 49.3058 148.735 49.0284C148.735 48.7511 148.831 48.5164 149.023 48.3244C149.215 48.1324 149.45 48.0364 149.727 48.0364C149.994 48.0364 150.218 48.1324 150.399 48.3244C150.591 48.5164 150.687 48.7511 150.687 49.0284C150.687 49.3058 150.591 49.5404 150.399 49.7324C150.218 49.9244 149.994 50.0204 149.727 50.0204Z" fill="white"/>
<defs>
<linearGradient id="paint0_linear" x1="63.8799" y1="0.186401" x2="63.8799" y2="25.6453" gradientUnits="userSpaceOnUse">
<stop stop-color="#99FEAC"/>
<stop offset="1" stop-color="#09C68E"/>
</linearGradient>
<linearGradient id="paint1_linear" x1="43.9195" y1="16" x2="75.5938" y2="16" gradientUnits="userSpaceOnUse">
<stop stop-color="#FFF9DF"/>
<stop offset="0.593" stop-color="#FFE177"/>
<stop offset="1" stop-color="#FEB137"/>
</linearGradient>
</defs>
</svg>
